<?xml version="1.0" encoding="utf-8"?>
<!-- Generator: Adobe Illustrator 19.1.0, SVG Export Plug-In . SVG Version: 6.00 Build 0)  -->
<svg version="1.1" id="Layer_1" xmlns="http://www.w3.org/2000/svg" xmlns:xlink="http://www.w3.org/1999/xlink" x="0px" y="0px"
	 viewBox="0 0 24 24" style="enable-background:new 0 0 24 24;" xml:space="preserve">
<style type="text/css">
	.st0{fill:#42BBFF;}
</style>
<g>
	<path class="st0" d="M8.6,9.2H3.2C1.8,9.2,0.7,8,0.7,6.7V2.5C0.7,1.1,1.8,0,3.2,0h5.4c1.4,0,2.5,1.1,2.5,2.5v4.2
		C11.1,8,10,9.2,8.6,9.2z"/>
	<path class="st0" d="M8.6,24H3.2c-1.4,0-2.5-1.1-2.5-2.5V13c0-1.4,1.1-2.5,2.5-2.5h5.4c1.4,0,2.5,1.1,2.5,2.5v8.5
		C11.1,22.9,10,24,8.6,24z"/>
	<path class="st0" d="M20.8,14.8h-5.4c-1.4,0-2.5,1.1-2.5,2.5v4.2c0,1.4,1.1,2.5,2.5,2.5h5.4c1.4,0,2.5-1.1,2.5-2.5v-4.2
		C23.3,16,22.2,14.8,20.8,14.8z"/>
	<path class="st0" d="M20.8,0h-5.4c-1.4,0-2.5,1.1-2.5,2.5V11c0,1.4,1.1,2.5,2.5,2.5h5.4c1.4,0,2.5-1.1,2.5-2.5V2.5
		C23.3,1.1,22.2,0,20.8,0z"/>
</g>
</svg>
