<?xml version="1.0" encoding="utf-8"?>
<!-- Generator: Adobe Illustrator 19.1.0, SVG Export Plug-In . SVG Version: 6.00 Build 0)  -->
<svg version="1.1" id="Layer_1" xmlns="http://www.w3.org/2000/svg" xmlns:xlink="http://www.w3.org/1999/xlink" x="0px" y="0px"
	 viewBox="0 0 24 24" style="enable-background:new 0 0 24 24;" xml:space="preserve">
<style type="text/css">
	.st0{fill:#42BBFF;}
</style>
<g>
	<g>
		<path class="st0" d="M5.6,24H0.3C0.1,24,0,23.9,0,23.8L0,8.3C0,8.1,0.1,8,0.3,8h5.4c0.1,0,0.3,0.1,0.3,0.3v15.5
			C5.9,23.9,5.8,24,5.6,24z"/>
		<path class="st0" d="M23.8,24h-5.4c-0.1,0-0.3-0.1-0.3-0.3V4.3c0-0.1,0.1-0.3,0.3-0.3h5.4C23.9,4,24,4.1,24,4.3v19.5
			C24,23.9,23.9,24,23.8,24z"/>
		<path class="st0" d="M14.6,24H9.2C9.1,24,9,23.9,9,23.8V0.3C9,0.1,9.1,0,9.2,0l5.4,0c0.1,0,0.3,0.1,0.3,0.3v23.5
			C14.9,23.9,14.7,24,14.6,24z"/>
	</g>
</g>
</svg>
